<svg xmlns="http://www.w3.org/2000/svg" viewBox="0 0 2245.84 1083.78"><defs><style>.cls-1{fill:#fff;}</style></defs><title>loggoDazzle</title><g id="Layer_2" data-name="Layer 2"><g id="Layer_1-2" data-name="Layer 1"><path class="cls-1" d="M630,505q0,63.33-44.08,125.05-37.68,52.9-97.79,93c2.12,4.81,3.2,8.55,3.2,11.23q0,11.22-8,11.22-3.23,0-11.23-12.83-120.24,72.13-276.54,72.14-16.83,0-32.07-.8-54.51-2.41-101-22.44Q0,755.13,0,710.24q0-53.68,50.5-88.17,44.09-28.86,101-32.06,36.08-84.17,78.56-161.12,12.81-24.84,37.67-63.33,13.62-17.61,40.88-17.63,11.22,0,11.22,6.41a8.58,8.58,0,0,1-1.6,4.81Q242.87,461,178.75,590q215.63,4.82,294.19,108.21,52.89-36.86,86.57-85,39.27-56.1,39.27-112.22,0-90.57-101.8-138.67-78.56-36.08-180.36-36.07-135.46,0-240.47,59.31-6.42,3.21-10.42,3.21-10.43,0-10.42-12,0-17.62,24.85-31.26Q116.23,326.28,190,314.26q61.72-9.61,114.63-9.62,118.64,0,208.42,41.69Q630,400,630,505ZM455.3,710.24q-36.89-45.69-121.84-74.55Q257.31,609.24,190,609.24c-6.94,0-13.9.28-20.83.8Q121,712.66,121,747.12a34.13,34.13,0,0,0,.81,6.41,35.71,35.71,0,0,1,.8,6.42q0,10.39-8.83,10.41-12.82,0-12.82-21.64,0-36.08,40.88-135.47Q35.28,630.89,35.27,711.84q0,36.07,48.9,56.92,36.85,16,80.15,17.63h20.05Q336.65,786.39,455.3,710.24Z"/><path class="cls-1" d="M865.71,664.59q0,4-4.81,11.31-35.28,57.39-66.53,73.56a63.49,63.49,0,0,1-28.86,7.28q-48.9,0-48.89-69.53A197.67,197.67,0,0,1,718.21,663q-53.7,95.4-95.38,95.39-24.86,0-24.85-27.25,0-41.69,40.08-100.61t77.76-71.74a69.4,69.4,0,0,1,26.45-5.61q28.85,0,41.68,20,2.4,4,2.4,5.62c0,.53-1.87,1.34-5.6,2.4s-6.42,2.95-8,5.61q-19.25,31.28-19.24,93.79,0,57.7,24.85,57.71,17.63,0,50.09-38.88t34.88-38.88C864.91,660.54,865.71,661.9,865.71,664.59Zm-117.83-84.2a30.13,30.13,0,0,0-7.21-.8q-32.08,0-66.54,40.88-48.9,59.32-48.89,97,0,16.83,11.22,16.84,17.63,0,45.69-36.88Q721.41,647.72,747.88,580.39Z"/><path class="cls-1" d="M1077.32,772.77c0,3.2-.8,4.81-2.4,4.81-1.08,0-3.48-1.34-7.22-4s-11.22-4-22.44-4q-8,0-16,.8-1.6,77.75-76.15,186.77-86.57,126.64-185.16,126.65-38.48,0-64.12-22.44t-25.66-60.13q0-85.77,121.84-164.32,103.41-66.54,199.59-81.76-.79-50.49-39.27-50.5-8,0-24.45,7.62t-22,7.62q-10.42,0-10.42-9.63,0-4.8,7.22-12,86.56-79.35,86.57-106.61,0-17.62-20-17.64-48.9,0-102.6,85.77-5.61,8-8,8c-2.15,0-3.21-1.33-3.21-4s1.06-5.87,3.21-9.62q17.63-36.86,46.48-62.52Q946.68,562,981.93,562q43.29,0,43.28,36.07,0,39.29-64.11,90.58h2.39q26.46-.78,45.29,18.84A75.5,75.5,0,0,1,1030,754.33h3.21q37.66-.8,43.28,11.22A30.49,30.49,0,0,1,1077.32,772.77Zm-77.76-3.21q-53.7,8.81-126.65,45.69T761.5,889q-60.91,57.72-60.92,114.63,0,31.27,19.64,50.1t51.69,18.84q91.4,0,165.93-125.85Q998,844.91,999.56,769.56Z"/><path class="cls-1" d="M1346.65,772.77c0,3.2-.8,4.81-2.4,4.81q-1.62,0-7.21-4t-22.45-4q-8,0-16,.8-1.62,77.75-76.15,186.77-86.57,126.64-185.16,126.65-38.47,0-64.13-22.44t-25.65-60.13q0-85.77,121.84-164.32,103.41-66.54,199.59-81.76-.81-50.49-39.27-50.5-8,0-24.45,7.62t-22,7.62q-10.43,0-10.42-9.63,0-4.8,7.22-12,86.57-79.35,86.57-106.61,0-17.62-20-17.64-48.89,0-102.6,85.77-5.61,8-8,8c-2.14,0-3.21-1.33-3.21-4s1.07-5.87,3.21-9.62q17.63-36.86,46.49-62.52Q1216,562,1251.27,562q43.29,0,43.28,36.07,0,39.29-64.12,90.58h2.4q26.46-.78,45.29,18.84a75.49,75.49,0,0,1,21.24,46.89h3.21q37.67-.8,43.28,11.22A30,30,0,0,1,1346.65,772.77Zm-77.75-3.21q-53.72,8.81-126.65,45.69T1030.83,889q-60.9,57.72-60.92,114.63,0,31.27,19.64,50.1t51.7,18.84q91.39,0,165.93-125.85Q1267.3,844.91,1268.9,769.56Z"/><path class="cls-1" d="M1628.81,318.27q0,54.53-103.4,185.17Q1443.65,605.24,1373.1,671q0,87.38,44.09,87.37t125-90.58q3.21-4,6.42-4c2.67,0,4,1.88,4,5.62a10.55,10.55,0,0,1-2.41,6.4,331.21,331.21,0,0,1-64.12,64.13q-45.7,35.26-81,35.27-60.12,0-60.11-98.59,0-67.33,66.53-181.16,54.51-93,116.23-161.12,44.07-48.09,73.75-48.09,9.6,0,18.43,10.82T1628.81,318.27Zm-34.47,3.21q0-15.23-10.42-15.23-23.26,0-56.91,44.89-38.48,52.11-87.38,146.69-53.72,103.4-64.12,154.7,44.07-38.47,118.63-141.08,77-107.4,93-155.5Q1594.33,333.51,1594.34,321.48Z"/><path class="cls-1" d="M1713.77,667.76a12.23,12.23,0,0,1-1.61,4.81q-20,31.26-60.11,57.71-42.49,28.08-77.76,28.06-50.49,0-50.5-63.32,0-41.68,36.07-91.39,38.48-52.89,79.36-52.9,8,0,14,7.22c4,4.8,6,9.89,6,15.22q0,24.86-37.68,60.13-33.67,31.25-61.73,41.67-5.59,20.06-5.6,33.67,0,32.88,29.66,32.87,28,0,63.32-23.25a240.19,240.19,0,0,0,52.1-45.69q5.61-8,11.23-8C1712.69,664.55,1713.77,665.63,1713.77,667.76Zm-78.55-85q0-9.63-9.63-9.63-12,0-35.26,36.87-20.05,31.28-24.85,48.91,20.83-8.82,43.29-31.27Q1635.22,602,1635.22,582.8Z"/><path class="cls-1" d="M2183.48,360c0,4.29-2.95,6.41-8.82,6.41l-2.4-.8q-43.29-4.8-131.47-11.22-72.13,91.38-115.42,173.14-62.52,118.65-76.15,190a636,636,0,0,1,73.75-4.81q72.93,0,88.17,16.83,4.81,5.63,4.81,16,0,13.62-8,13.62-13.64,0-47.69-7.61t-50.9-7.62q-28.86,0-62.52,3.21.79,23.24,16,23.24,7.22,0,20-8.82t15.23-8.81q6.41,0,6.41,7.22,0,9.6-16.43,18t-26.85,8.41q-32.09,0-35.28-37.67-20.85,2.4-89,16.83-61.74,13.62-81,13.63-9.63,0-9.62-10.42,0-6.42,8-9.62,5.58-2.4,48.89-13.62,64.93-16,123.44-24.85,8.82-67.35,67.34-188.38,52.91-109.8,102.6-178.75h-13.63q-46.5-.8-80.16,3.21-100.2,12-100.19,38.47,0,11.23,22.45,24t22.44,17.63c0,4.29-2.68,6.42-8,6.42a22.8,22.8,0,0,1-5.61-.81q-64.14-30.45-64.13-53.7,0-17.62,34.47-34.47,45.69-21.63,149.09-21.64,27.25,0,57.72,1.6,9.61-13.62,39.28-13.62,12,0,12,4.81,0,1.61-8,12,45.7,3.21,92.19,9.62,9.61.81,28,4C2180.53,352.74,2183.48,355.68,2183.48,360Z"/><path class="cls-1" d="M2230.76,662.15c0,2.14-1.08,4.81-3.2,8q-20.85,28.85-64.93,59.31-48.9,32.88-80.16,32.86-45.67,0-45.69-66.52,0-51.29,28.85-110.63-56.12,0-56.1-20.83,0-4.82,8-4.82,9.63,0,30.46,1.61t31.26,1.6q4.81-8,35.28-64.13,23.24-44.06,38.47-57.71,11.22-11.21,31.26-11.22,17.63,0,17.64,7.21a6.39,6.39,0,0,1-.8,2.41q-11.25,14.43-32.07,40.88-35.28,47.31-56.91,85,11.22.81,32.06.8c3.74,0,9.34-.26,16.84-.8h16.83q9.61,0,9.62,4.81,0,12-83.37,14.42-12.83,20.05-24.05,56.12t-11.22,59.31q0,41.68,31.27,41.69,26.44,0,64.93-27.26,32.85-23.24,52.1-48.89,5.59-7.23,10.42-7.22C2229.68,658.14,2230.76,659.48,2230.76,662.15Z"/><polygon class="cls-1" points="1024.42 117.03 1245.47 117.03 1134.32 13.35 1281.12 117.03 1326.55 117.03 1129.24 0 931.92 117.03 987.97 117.03 1126.59 13.35 1024.42 117.03"/><polygon class="cls-1" points="1134.08 368.29 1248.24 135.77 1022.22 135.77 1126.35 368.29 985.78 135.77 931.92 135.77 1129.24 392.12 1326.55 135.77 1281.85 135.77 1134.08 368.29"/><rect class="cls-1" x="12.64" y="185.3" width="804.49" height="21.52"/><rect class="cls-1" x="1446.73" y="185.3" width="799.11" height="21.52"/></g></g></svg>